<svg width="23" height="21" viewBox="0 0 23 21" fill="none" xmlns="http://www.w3.org/2000/svg">
<path fill-rule="evenodd" clip-rule="evenodd" d="M11.4332 0.000546408C11.2347 0.0108002 11.0624 0.141301 11.0006 0.329596L8.59429 7.51742H0.88747V7.51835C0.680542 7.51835 0.497023 7.65072 0.433359 7.84647C0.368752 8.04222 0.43804 8.25663 0.603771 8.37967L6.86401 12.9371L4.45766 20.3757V20.3748C4.39305 20.5724 4.46422 20.7877 4.63275 20.9089C4.80129 21.031 5.02881 21.0301 5.19643 20.9079L11.4567 16.3506L17.7169 20.9079C17.8845 21.0301 18.112 21.031 18.2806 20.9089C18.4491 20.7877 18.5203 20.5724 18.4557 20.3748L16.0493 12.9361L22.3096 8.37874V8.37967C22.4753 8.25663 22.5446 8.04222 22.48 7.84647C22.4163 7.65072 22.2328 7.51835 22.0259 7.51835H14.319L11.9127 0.330528V0.329596C11.8462 0.125453 11.6496 -0.00971475 11.4333 0.000546408H11.4332Z" fill="#FF9900"/>
</svg>
